<svg width="1200" height="630" viewBox="0 0 1200 630" fill="none" xmlns="http://www.w3.org/2000/svg">
  <defs>
    <linearGradient id="bg" x1="120" y1="80" x2="1020" y2="560" gradientUnits="userSpaceOnUse">
      <stop stop-color="#F8F3EC"/>
      <stop offset="1" stop-color="#E7DCCB"/>
    </linearGradient>
    <linearGradient id="panel" x1="94" y1="80" x2="1110" y2="584" gradientUnits="userSpaceOnUse">
      <stop stop-color="#224E48"/>
      <stop offset="1" stop-color="#163833"/>
    </linearGradient>
  </defs>
  <rect width="1200" height="630" rx="36" fill="url(#bg)"/>
  <circle cx="1014" cy="102" r="84" fill="#D8E3DE"/>
  <circle cx="1038" cy="128" r="26" fill="#F8F3EC"/>
  <circle cx="150" cy="534" r="122" fill="#E9DCCB"/>
  <rect x="70" y="58" width="1060" height="514" rx="34" fill="url(#panel)"/>
  <rect x="110" y="98" width="458" height="434" rx="28" fill="#F8F2E9" fill-opacity="0.08"/>
  <rect x="152" y="140" width="144" height="48" rx="24" fill="#E4C8A7"/>
  <rect x="152" y="214" width="524" height="84" rx="18" fill="#FFFFFF" fill-opacity="0.08"/>
  <rect x="152" y="320" width="436" height="28" rx="14" fill="#FFFFFF" fill-opacity="0.12"/>
  <rect x="152" y="364" width="362" height="28" rx="14" fill="#FFFFFF" fill-opacity="0.12"/>
  <rect x="152" y="446" width="214" height="54" rx="27" fill="#E9C7A2"/>
  <rect x="384" y="446" width="198" height="54" rx="27" fill="#FFFFFF" fill-opacity="0.12"/>
  <rect x="776" y="114" width="264" height="372" rx="34" fill="#F8F2E9" fill-opacity="0.1"/>
  <rect x="804" y="144" width="208" height="320" rx="26" fill="#F7F1E7"/>
  <circle cx="908" cy="224" r="68" fill="#EAC2A4"/>
  <path d="M854 222C854 175.608 891.608 138 938 138C971.137 138 998 164.863 998 198C998 234.451 968.451 264 932 264H859C856.239 264 854 261.761 854 259V222Z" fill="#1F3237"/>
  <path d="M824 490C824 380.648 912.648 292 1022 292H1036C1068.033 292 1094 317.967 1094 350V490H824Z" fill="#275650"/>
  <path d="M892 490L910 308H970L992 490H892Z" fill="#FBF4EA"/>
  <path d="M822 112H1110V572H70V58H1130V572" stroke="#000000" stroke-opacity="0.02"/>
  <text x="152" y="171" fill="#163833" font-family="Manrope, Segoe UI, sans-serif" font-size="22" font-weight="800" letter-spacing="3">ГОТОВЫЙ ШАБЛОН САЙТА УСЛУГ</text>
  <text x="152" y="274" fill="#F5EFE6" font-family="Prata, Georgia, serif" font-size="62" letter-spacing="-1">
    Landing page
  </text>
  <text x="152" y="338" fill="#F5EFE6" font-family="Prata, Georgia, serif" font-size="62" letter-spacing="-1">
    для частного
  </text>
  <text x="152" y="402" fill="#F5EFE6" font-family="Prata, Georgia, serif" font-size="62" letter-spacing="-1">
    специалиста / ИП
  </text>
  <text x="152" y="476" fill="#F5EFE6" fill-opacity="0.78" font-family="Manrope, Segoe UI, sans-serif" font-size="28">
    Быстро адаптируется под юриста, репетитора, бухгалтера,
  </text>
  <text x="152" y="514" fill="#F5EFE6" fill-opacity="0.78" font-family="Manrope, Segoe UI, sans-serif" font-size="28">
    консультанта, психолога, мастера услуг и небольшую компанию.
  </text>
</svg>
